<?xml version="1.0" encoding="utf-8"?>
<!-- Generator: Adobe Illustrator 18.0.0, SVG Export Plug-In . SVG Version: 6.00 Build 0)  -->
<!DOCTYPE svg PUBLIC "-//W3C//DTD SVG 1.1//EN" "http://www.w3.org/Graphics/SVG/1.1/DTD/svg11.dtd">
<svg version="1.1" id="Calque_1" xmlns="http://www.w3.org/2000/svg" xmlns:xlink="http://www.w3.org/1999/xlink" x="0px" y="0px"
	 viewBox="0 0 45 45" enable-background="new 0 0 45 45" xml:space="preserve">
<g>
	<circle fill="#313036" cx="22.5" cy="22.5" r="20"/>
	<g>
		<path fill-rule="evenodd" clip-rule="evenodd" fill="#FFFFFF" d="M17.4,31.4v-12h-4v12H17.4L17.4,31.4z M15.4,17.7
			c1.4,0,2.3-0.9,2.3-2.1c0-1.2-0.9-2.1-2.2-2.1c-1.4,0-2.3,0.9-2.3,2.1C13.2,16.8,14,17.7,15.4,17.7L15.4,17.7L15.4,17.7z"/>
		<path fill-rule="evenodd" clip-rule="evenodd" fill="#FFFFFF" d="M19.6,31.4h4v-6.7c0-0.4,0-0.7,0.1-1c0.3-0.7,0.9-1.5,2.1-1.5
			c1.4,0,2,1.1,2,2.7v6.4h4v-6.9c0-3.7-2-5.4-4.6-5.4c-2.2,0-3.1,1.2-3.6,2h0v-1.7h-4C19.7,20.5,19.6,31.4,19.6,31.4L19.6,31.4z"/>
	</g>
</g>
<g>
</g>
<g>
</g>
<g>
</g>
<g>
</g>
<g>
</g>
<g>
</g>
<g>
</g>
<g>
</g>
<g>
</g>
<g>
</g>
<g>
</g>
<g>
</g>
<g>
</g>
<g>
</g>
<g>
</g>
</svg>
