<?xml version="1.0" encoding="utf-8"?>
<!-- Generator: Adobe Illustrator 18.1.0, SVG Export Plug-In . SVG Version: 6.00 Build 0)  -->
<!DOCTYPE svg PUBLIC "-//W3C//DTD SVG 1.1//EN" "http://www.w3.org/Graphics/SVG/1.1/DTD/svg11.dtd">
<svg version="1.1" id="Calque_7" xmlns="http://www.w3.org/2000/svg" xmlns:xlink="http://www.w3.org/1999/xlink" x="0px" y="0px"
	 width="130px" height="130px" viewBox="0 0 130 130" enable-background="new 0 0 130 130" xml:space="preserve">
<g>
	<path fill="none" d="M87.5,64.1c-5.4-3.3-4.7-14.6,1.4-24.7c4-6.6,9.2-10.9,13.6-11.8C98,21.8,92.3,17,85.8,13.4
		c-0.3,1.3-0.5,2.3-0.6,2.9l-5.9-2.7c0.4-1,0.9-1.9,1.3-2.7C74,8,66.6,6.3,58.9,6.3C28.3,6.3,3.4,31.2,3.4,61.8
		c0,23.7,15,44,36,51.9c-3-5.5-3.5-11.4-1-17.5c3.1-6.7,9.6-5,16-9.8c6.3-4.7,11.1-12.4,19.6-11.2c7.3,2.2,8.2,8.8,11.8,16
		c2.5,5.1,5.2,8.7,5.1,13.6c0,0.8,0,1.6-0.1,2.3c3.6-2.5,6.9-5.5,9.8-8.8c-1.7,0.1-3.2-0.2-4.6-1c-5.5-3.5-4.3-13.8,1.2-22.1
		c4.8-7.2,11.9-11.4,16.9-10.1c0,0,0.1,0,0.1,0c0.1-1.1,0.1-2.1,0.1-3.2c0-7.2-1.4-14.1-3.9-20.4c-0.6,3.1-1.7,6.4-3.5,9.7
		C101.6,61.2,92.8,67.3,87.5,64.1z M57.6,30.1c-2,3.7-4.7,12.1-4.8,14.3L47.6,42C50.4,35.9,53.3,32.6,57.6,30.1z M56.8,70.1
		C53.4,80.9,45.6,88,39.6,86.3c-5.9-1.6-8.4-11.1-5.5-21.5C37,54,44.7,45.9,51.2,47.1C57.8,48.4,60.4,58.9,56.8,70.1z M65.9,60
		c-5.9-1.6-8.3-11.4-5.4-22.2c3.1-11.2,10.8-19.7,17.3-18.5c6.7,1.2,9.2,12,5.5,23.7C79.8,54.3,72,61.7,65.9,60z"/>
	<path fill="#DFDFE0" d="M117.4,55.7c-0.8-7.9-3.2-15.3-6.8-22c0.4,2.2,0.4,4.9-0.2,7.7c2.5,6.3,3.9,13.2,3.9,20.4
		c0,1.1,0,2.1-0.1,3.2c1.3,0.4,2.4,1.1,3.3,2.1c0.2-1.8,0.3-3.6,0.3-5.4c0-0.3,0-0.6,0-0.9l-3-1.4C115.3,59,116.3,57.5,117.4,55.7z"
		/>
	<path fill="#DFDFE0" d="M3.4,61.8c0-30.6,24.9-55.5,55.5-55.5c7.7,0,15.1,1.6,21.8,4.5c0.6-1.1,1.2-2,1.8-3
		c-7.2-3.2-15.2-4.9-23.6-4.9C26.4,2.9,0,29.3,0,61.8c0,26.9,18,49.5,42.6,56.6c-1.3-1.5-2.4-3.1-3.2-4.7
		C18.4,105.8,3.4,85.5,3.4,61.8z"/>
	<path fill="#DFDFE0" d="M90.8,107.1c-0.1,1.6-0.4,3.1-0.7,4.6c6.5-4.1,12.1-9.4,16.6-15.7c-2.1,1.3-4.2,2.1-6.1,2.2
		C97.7,101.6,94.4,104.5,90.8,107.1z"/>
	<path fill="#DFDFE0" d="M102.5,27.6c1.7-0.4,3.4-0.2,4.7,0.6C101.9,20.7,95,14.4,86.8,10c-0.4,1.2-0.7,2.4-1,3.4
		C92.3,17,98,21.8,102.5,27.6z"/>
	<path fill="#CF4D17" d="M122.3,46.5c-0.9,2.4-3.1,6.3-4.9,9.2c-1.1,1.8-2.1,3.2-2.7,3.8l3,1.4l2.2,1
		C122.6,55.8,123.2,51.5,122.3,46.5z"/>
	<path fill="#CF4D17" d="M79.3,13.6l5.9,2.7c0-0.6,0.3-1.6,0.6-2.9c0.3-1,0.6-2.2,1-3.4c1.1-3.6,2.7-7.6,3.9-10
		c-3.3,2-5.9,4.4-8.3,7.9c-0.6,0.9-1.2,1.9-1.8,3C80.2,11.7,79.8,12.6,79.3,13.6z"/>
	<path fill="#CF4D17" d="M113.5,8.4c-1.7,4.4-6.9,13-8.7,14.8l5.9,2.7C113.9,18.9,114.5,14,113.5,8.4z"/>
	<path fill="#CF4D17" d="M57.6,30.1c-4.3,2.6-7.2,5.8-10,11.9l5.2,2.4C52.9,42.2,55.6,33.7,57.6,30.1z"/>
	<path fill="#CF4D17" d="M90.9,104.7c0.1-4.9-2.6-8.5-5.1-13.6c-3.5-7.2-4.5-13.8-11.8-16c-8.5-1.2-13.3,6.5-19.6,11.2
		c-6.5,4.8-12.9,3.1-16,9.8c-2.5,6.1-2,12,1,17.5c0.9,1.6,2,3.1,3.2,4.7c0.3,0.4,0.6,0.7,0.9,1.1c8.4,9.3,24,12.8,31.3,9.1
		c8.6-2.3,13.5-8.9,15.4-16.9c0.3-1.5,0.6-3,0.7-4.6C90.9,106.3,90.9,105.5,90.9,104.7z"/>
	<path fill="#CF4D17" d="M51.2,47.1C44.7,45.9,37,54,34.1,64.8c-2.9,10.4-0.4,19.8,5.5,21.5c6.1,1.7,13.8-5.4,17.3-16.2
		C60.4,58.9,57.8,48.4,51.2,47.1z"/>
	<path fill="#CF4D17" d="M77.9,19.4c-6.5-1.2-14.2,7.3-17.3,18.5C57.6,48.7,60,58.4,65.9,60c6.1,1.7,13.9-5.7,17.4-16.9
		C87,31.4,84.6,20.6,77.9,19.4z"/>
	<path fill="#CF4D17" d="M102.5,27.6c-4.4,0.9-9.6,5.2-13.6,11.8c-6.1,10.1-6.8,21.4-1.4,24.7c5.3,3.2,14.1-2.9,19.4-13
		c1.7-3.3,2.9-6.6,3.5-9.7c0.6-2.9,0.6-5.5,0.2-7.7c-0.5-2.3-1.4-4.2-3-5.3c-0.1-0.1-0.3-0.1-0.4-0.2
		C105.9,27.5,104.2,27.3,102.5,27.6z"/>
	<path fill="#CF4D17" d="M114.2,65c0,0-0.1,0-0.1,0c-4.9-1.3-12,2.9-16.9,10.1c-5.5,8.3-6.7,18.6-1.2,22.1c1.4,0.9,2.9,1.2,4.6,1
		c2-0.1,4.1-0.9,6.1-2.2c4.1-2.6,8-7.1,10.5-12.7c3.1-6.9,2.8-12.9,0.2-16.1C116.6,66.1,115.5,65.4,114.2,65z"/>
</g>
</svg>
