<?xml version="1.0" encoding="utf-8"?>
<!-- Generator: Adobe Illustrator 18.1.0, SVG Export Plug-In . SVG Version: 6.00 Build 0)  -->
<!DOCTYPE svg PUBLIC "-//W3C//DTD SVG 1.1//EN" "http://www.w3.org/Graphics/SVG/1.1/DTD/svg11.dtd">
<svg version="1.1" id="Calque_1" xmlns="http://www.w3.org/2000/svg" xmlns:xlink="http://www.w3.org/1999/xlink" x="0px" y="0px"
	 width="130px" height="130px" viewBox="0 0 130 130" enable-background="new 0 0 130 130" xml:space="preserve">
<g>
	<path fill="none" d="M56.2,10.5c-29.5,0-53.4,23.9-53.4,53.4s23.9,53.4,53.4,53.4c6.8,0,13.3-1.3,19.3-3.6c0-1,0-2,0-3.1
		c0-10.9,3.7-25.4,7.9-36.9l1.6-4.1c0.2-0.5,0.6-1.5,0.6-1.5c-0.6-1-2.1-2.9-4.5-5.1L81,63.2c-1.8,2.9-3.7,5.3-5.7,7.4
		c-19.4,19.7-48.2,5.8-48.3,5.8L26.3,76v0l0.2-0.6c0-0.1,8.6-24.4,30.9-24.2c6.1,0.1,13.1,1.9,21.2,6.6c3.2,1.7,3.8,2.2,3.8,2.2
		c2.3,2.1,4.4,5,4.4,5c1.6-3.8,3.2-7.3,4.8-10.4L91.5,54c0,0-0.2-1.3-0.7-2.8c-0.5-1.5-1.3-3.2-2.5-4.3c-6.6,0.9-12,1.3-16.6,1.2
		c-12.3-0.2-18.5-3.4-24.2-6.6c-5.8-3.2-11-6.3-22.1-6.4c-0.2,0-0.4,0-0.5,0c-0.2,0-0.3,0-0.4,0c-0.2,0-0.4,0-0.6-0.1
		c-0.2-0.1-0.5-0.4-0.5-0.8c0.1-0.8,0.6-1,1.3-1.5c0.7-0.4,1.7-1,2.9-1.6c2.5-1.2,5.9-2.6,9.9-4c8.1-2.7,18.5-5.2,28-5.1
		c10.8,0.1,20.6,3.7,24,14.4l0,0.1c0,0,0,0.5,0,0.7c-0.1,4,1.1,7.5,2.2,10.1c0.7,1.6,1.4,2.7,1.8,3.4c2.9-5.7,5.2-9.5,5.6-10.2
		c0.1-0.2,0.2-0.5,0.3-0.7c0.5-1.6,1.1-3.5,1.3-5.5C91.1,20,74.7,10.5,56.2,10.5z"/>
	<path fill="none" d="M101.5,40.2c-0.2,0.2-0.3,0.4-0.4,0.6c-1.9,3.7-5.4,10.7-9,19.4c1.3-0.8,2.9-1.4,4.8-1.9l0.2,0.6l-0.1-0.6
		c1.3-0.3,4.2-1.2,8-1.1c1.3,0,2.7,0.2,4.2,0.4c-0.8-7-3-13.6-6.2-19.5C102.4,38.9,101.9,39.6,101.5,40.2z"/>
	<path fill="none" d="M100.4,93.7c-6-7.2-11.2-15-12.7-21.6c-3.5,10.4-6.5,21.5-6.5,31.8c0,2.3,0.2,4.5,0.5,6.8
		C89.3,106.6,95.7,100.8,100.4,93.7z"/>
	<path fill="#DFDFE0" d="M56.2,117.3c-29.5,0-53.4-23.9-53.4-53.4s23.9-53.4,53.4-53.4c18.5,0,34.9,9.5,44.5,23.9
		c0.1-0.6,0.1-1.1,0.1-1.7c0-2.1-3.1-5-4.9-8.5C85.7,14,71.6,7.8,56.2,7.8c-31,0-56.1,25.2-56.1,56.1S25.2,120,56.2,120
		c6.8,0,13.4-1.2,19.4-3.4c0-1-0.1-1.9-0.1-3C69.5,116,63,117.3,56.2,117.3z"/>
	<path fill="#DFDFE0" d="M109.2,57.7c0.9,0.2,1.9,0.5,2.9,0.8c-0.8-8.1-3.3-15.8-7.2-22.5c-0.7,0.7-1.3,1.5-1.9,2.3
		C106.2,44.1,108.4,50.7,109.2,57.7z"/>
	<path fill="#DFDFE0" d="M81.8,110.8c0.1,1,0.3,1.9,0.5,2.9c8-4.2,14.9-10.3,20.1-17.7c-0.6-0.7-1.2-1.5-1.9-2.2
		C95.7,100.8,89.3,106.6,81.8,110.8z"/>
	<path fill="#788F29" d="M122.9,65.3c-3.7-3.6-7.4-5.7-10.8-6.8c-1-0.3-2-0.6-2.9-0.8c-1.5-0.3-2.9-0.4-4.2-0.4
		c-3.8-0.1-6.7,0.9-8,1.1l0.1,0.6l-0.2-0.6c-1.9,0.4-3.5,1.1-4.8,1.9c3.6-8.7,7.1-15.7,9-19.4c0.1-0.2,0.3-0.4,0.4-0.6
		c0.4-0.6,0.9-1.3,1.4-2c0.6-0.8,1.2-1.5,1.9-2.3c0.5-0.5,0.9-0.9,1.4-1.3c2.9-2.2,13.6,1.4,16.5-6.8c1.9-5.4-0.6-19.2-2.6-27.9v0
		C112.1,3.7,99,10.6,95.8,15.5c-2,3.1-1.4,6,0,8.6c1.8,3.5,4.9,6.5,4.9,8.5c0,0.6-0.1,1.1-0.1,1.7c-0.2,1.9-0.8,3.9-1.3,5.5
		c-0.1,0.3-0.2,0.5-0.3,0.7c-0.4,0.8-2.7,4.5-5.6,10.2c-0.4-0.6-1.1-1.8-1.8-3.4c-1.1-2.5-2.2-6.1-2.2-10.1c0-0.2,0-0.7,0-0.7l0-0.1
		c-3.3-10.7-13.2-14.3-24-14.4c-9.5-0.1-19.9,2.3-28,5.1c-4,1.3-7.5,2.8-9.9,4c-1.2,0.6-2.2,1.1-2.9,1.6c-0.7,0.5-1.1,0.7-1.3,1.5
		c0,0.3,0.3,0.7,0.5,0.8c0.2,0.1,0.4,0.1,0.6,0.1c0.1,0,0.3,0,0.4,0c0.2,0,0.3,0,0.5,0c11,0.2,16.3,3.2,22.1,6.4
		c5.7,3.2,11.9,6.4,24.2,6.6c4.6,0.1,10-0.3,16.6-1.2c1.2,1.1,2,2.8,2.5,4.3c0.5,1.6,0.7,2.8,0.7,2.8l0.1,0.5
		c-1.5,3.1-3.1,6.6-4.8,10.4c0,0-2-2.9-4.4-5c0,0-0.6-0.5-3.8-2.2c-8-4.7-15.1-6.6-21.2-6.6c-22.4-0.2-30.9,24.1-30.9,24.2L26.3,76
		v0l0.8,0.4c0.1,0,28.8,13.9,48.3-5.8c2-2.1,3.9-4.5,5.7-7.4l0.1-0.1c2.4,2.2,3.8,4.1,4.5,5.1c0,0-0.5,1-0.6,1.5l-1.6,4.1
		c-4.2,11.5-7.9,26-7.9,36.9c0,1,0,2.1,0,3.1c0,1,0,2,0.1,3c0.3,7.8,1,13.3,1,13.3h0h0.1c-0.1,0,11.6-0.1,11.5,0
		c-2.3-3.5-4.7-9.5-6-16.3c-0.2-1-0.3-1.9-0.5-2.9c-0.3-2.2-0.5-4.5-0.5-6.8c0-10.3,2.9-21.4,6.5-31.8c1.5,6.6,6.7,14.3,12.7,21.6
		c0.6,0.7,1.2,1.5,1.9,2.2c0.9,1.1,1.9,2.2,2.8,3.2c8.9,9.9,17.9,17.6,17.9,17.6l0.7,0.6l0.3-0.9c0,0,5.2-15.4,5.4-29.9
		C129.5,78.3,128,70.2,122.9,65.3z"/>
</g>
</svg>
