<?xml version="1.0" encoding="utf-8"?>
<!-- Generator: Adobe Illustrator 18.1.0, SVG Export Plug-In . SVG Version: 6.00 Build 0)  -->
<!DOCTYPE svg PUBLIC "-//W3C//DTD SVG 1.1//EN" "http://www.w3.org/Graphics/SVG/1.1/DTD/svg11.dtd">
<svg version="1.1" id="Calque_3" xmlns="http://www.w3.org/2000/svg" xmlns:xlink="http://www.w3.org/1999/xlink" x="0px" y="0px"
	 width="130px" height="130px" viewBox="0 0 130 130" enable-background="new 0 0 130 130" xml:space="preserve">
<g>
	<path fill="none" d="M93.5,101.9c9.9-9.7,16.1-23.1,16.1-38c0-5.2-0.8-10.1-2.1-14.9L91.1,93.8L93.5,101.9z"/>
	<polygon fill="none" points="65.5,75 69.2,66.3 55.1,13.6 53.1,27 	"/>
	<path fill="none" d="M56.6,73L44.5,25.5L50,14.9l5.1-1.3l15,9.9l7.2,24l11.2-25.9c-8.9-6.8-20-10.8-32-10.8
		c-29.3,0-53.2,23.8-53.2,53.1c0,26.2,21,48.1,44.7,52.3l1.9-4.3L18,54.6l0.6-7.5l23.7,6.3L56.6,73z"/>
	<path fill="#DFDFE0" d="M3.2,63.9c0-29.3,23.9-53.1,53.2-53.1c12,0,23.1,4,32,10.8l1.3-3.1C80.5,11.6,68.9,7.5,56.4,7.5
		C25.3,7.5,0,32.7,0,63.9c0,27.4,22.9,50.3,46.6,55.3l1.3-3C24.3,111.9,3.2,90.1,3.2,63.9z"/>
	<path fill="#DFDFE0" d="M112.8,63.9c0-7-1.3-13.6-3.6-19.8l-1.8,4.9c1.4,4.7,2.1,9.7,2.1,14.9c0,14.9-6.2,28.3-16.1,38l1,3.5
		C105.7,95.1,112.8,80.3,112.8,63.9z"/>
	<polygon fill="#007EB1" points="49.8,111.9 47.9,116.2 46.6,119.2 44.6,123.8 56.3,123.7 77.9,130 28.8,57.1 18.6,47.1 18,54.6 	
		"/>
	<polygon fill="#007EB1" points="91.1,93.8 107.4,49 109.2,44.1 123.4,5.1 122.5,0 108.7,10 74,97 69.7,91.1 104.8,8.6 104.3,3.3 
		94.1,8.5 89.8,18.5 88.5,21.6 77.3,47.5 70.2,23.5 55.1,13.6 69.2,66.3 65.5,75 53.1,27 55.1,13.6 50,14.9 44.5,25.5 56.6,73 
		42.3,53.4 18.6,47.1 33.6,54.8 82.5,128.3 93.9,124.4 99.5,122.1 94.5,105.4 93.5,101.9 	"/>
</g>
</svg>
