<?xml version="1.0" encoding="utf-8"?>
<!-- Generator: Adobe Illustrator 18.0.0, SVG Export Plug-In . SVG Version: 6.00 Build 0)  -->
<!DOCTYPE svg PUBLIC "-//W3C//DTD SVG 1.1//EN" "http://www.w3.org/Graphics/SVG/1.1/DTD/svg11.dtd">
<svg version="1.1" id="Calque_1" xmlns="http://www.w3.org/2000/svg" xmlns:xlink="http://www.w3.org/1999/xlink" x="0px" y="0px"
	 viewBox="0 0 45 45" enable-background="new 0 0 45 45" xml:space="preserve">
<g>
	<circle fill="#313036" cx="22.5" cy="22.5" r="20"/>
	<path fill="#FFFFFF" d="M32.8,16.1c-0.8,0.3-1.6,0.6-2.4,0.7c0.9-0.5,1.5-1.3,1.9-2.3c-0.8,0.5-1.7,0.8-2.7,1
		c-0.8-0.8-1.9-1.3-3.1-1.3c-2.3,0-4.2,1.9-4.2,4.2c0,0.3,0,0.7,0.1,1c-3.5-0.2-6.6-1.9-8.7-4.4c-0.4,0.6-0.6,1.3-0.6,2.1
		c0,1.5,0.7,2.8,1.9,3.5c-0.7,0-1.3-0.2-1.9-0.5c0,0,0,0,0,0.1c0,2,1.5,3.7,3.4,4.1c-0.4,0.1-0.7,0.1-1.1,0.1c-0.3,0-0.5,0-0.8-0.1
		c0.5,1.7,2.1,2.9,3.9,2.9C17,28.3,15.2,29,13.2,29c-0.3,0-0.7,0-1-0.1c1.9,1.2,4.1,1.9,6.5,1.9c7.7,0,12-6.4,12-12
		c0-0.2,0-0.4,0-0.5C31.5,17.7,32.2,17,32.8,16.1z"/>
</g>
<g>
</g>
<g>
</g>
<g>
</g>
<g>
</g>
<g>
</g>
<g>
</g>
<g>
</g>
<g>
</g>
<g>
</g>
<g>
</g>
<g>
</g>
<g>
</g>
<g>
</g>
<g>
</g>
<g>
</g>
</svg>
